<?xml version="1.0" standalone="no"?>
<!DOCTYPE svg PUBLIC "-//W3C//DTD SVG 1.1//EN" "http://www.w3.org/Graphics/SVG/1.1/DTD/svg11.dtd">
<svg version="1.1" xmlns="http://www.w3.org/2000/svg" viewBox="0 0 117.0833740234375 186.25" width="351.2501220703125" height="558.75"><!-- svg-source:excalidraw --><metadata></metadata><defs><style class="style-fonts">
      </style></defs><g transform="translate(49.73158239095983 10) rotate(0 -6.737049517240791 39.3112021446228)" stroke="none"><path fill="#e03131" d="M 3.31,1.86 Q 3.31,1.86 -0.39,8.15 -4.11,14.45 -6.75,18.55 -9.40,22.65 -12.31,27.41 -15.23,32.18 -18.56,38.05 -21.90,43.92 -24.31,48.56 -26.72,53.21 -28.62,57.51 -30.53,61.81 -31.57,64.89 -32.61,67.97 -33.57,70.82 -34.53,73.68 -30.37,72.91 -26.21,72.14 -18.72,71.77 -11.23,71.40 -4.60,71.02 2.01,70.65 7.36,70.15 12.71,69.66 16.48,69.18 20.25,68.71 23.03,68.20 25.80,67.70 26.39,67.72 26.99,67.75 27.54,67.96 28.10,68.17 28.56,68.55 29.02,68.92 29.33,69.43 29.64,69.93 29.78,70.51 29.92,71.09 29.86,71.68 29.81,72.27 29.56,72.82 29.32,73.36 28.92,73.80 28.52,74.23 28.00,74.52 27.48,74.81 26.89,74.91 26.31,75.02 25.72,74.93 25.13,74.84 24.60,74.57 24.07,74.30 23.66,73.88 23.24,73.45 22.99,72.91 22.73,72.38 22.66,71.79 22.58,71.20 22.70,70.62 22.82,70.03 23.12,69.52 23.42,69.01 23.87,68.62 24.31,68.22 24.86,68.00 25.41,67.77 26.00,67.73 26.60,67.69 27.17,67.84 27.75,67.99 28.24,68.31 28.74,68.64 29.11,69.11 29.47,69.58 29.67,70.14 29.87,70.70 29.88,71.29 29.89,71.89 29.70,72.45 29.52,73.02 29.17,73.50 28.82,73.97 28.33,74.31 27.84,74.65 27.27,74.82 26.70,74.99 26.70,74.99 26.70,74.99 23.89,75.18 21.07,75.36 17.28,75.83 13.49,76.29 8.05,77.06 2.61,77.83 -3.98,78.56 -10.59,79.29 -17.86,80.12 -25.13,80.94 -30.40,81.62 -35.68,82.29 -37.94,82.11 -40.19,81.92 -41.59,79.87 -42.99,77.81 -41.97,74.47 -40.95,71.13 -39.69,68.40 -38.43,65.67 -37.05,62.62 -35.67,59.58 -33.75,55.09 -31.83,50.61 -29.45,45.83 -27.07,41.04 -23.80,35.04 -20.54,29.04 -17.74,24.14 -14.95,19.25 -12.57,15.14 -10.19,11.03 -6.75,4.58 -3.31,-1.86 -3.04,-2.23 -2.77,-2.60 -2.42,-2.89 -2.07,-3.18 -1.66,-3.39 -1.24,-3.59 -0.80,-3.68 -0.35,-3.78 0.10,-3.77 0.56,-3.76 1.00,-3.63 1.44,-3.51 1.84,-3.29 2.24,-3.06 2.58,-2.75 2.91,-2.44 3.16,-2.05 3.41,-1.67 3.56,-1.23 3.71,-0.80 3.75,-0.34 3.80,0.10 3.73,0.56 3.66,1.01 3.49,1.43 3.31,1.86 3.31,1.86 L 3.31,1.86 Z"></path></g><g transform="translate(66.66077326463824 48.098966789245594) rotate(0 20.038520482826925 41.9088583946228)" stroke="none"><path fill="#e03131" d="M -4.05,-3.40 Q -4.05,-3.40 -2.43,-5.34 -0.81,-7.29 1.61,-8.91 4.03,-10.53 7.91,-11.73 11.78,-12.94 14.74,-13.28 17.71,-13.62 19.98,-13.72 22.25,-13.81 26.24,-12.92 30.22,-12.03 32.87,-10.17 35.52,-8.32 37.83,-5.95 40.15,-3.58 41.87,-1.37 43.59,0.83 44.57,3.75 45.54,6.68 46.11,10.01 46.69,13.35 46.93,16.27 47.18,19.19 47.26,22.51 47.33,25.83 47.24,28.45 47.14,31.07 45.93,34.89 44.72,38.70 43.69,41.04 42.66,43.37 41.21,45.86 39.76,48.35 37.68,51.18 35.59,54.00 33.66,55.37 31.72,56.74 29.77,57.84 27.82,58.94 25.78,60.28 23.75,61.62 21.83,62.57 19.92,63.52 18.82,66.28 17.72,69.03 17.52,71.61 17.32,74.18 17.31,76.93 17.29,79.67 17.78,82.92 18.26,86.16 18.04,86.73 17.82,87.29 18.33,88.37 18.83,89.45 18.96,90.64 19.09,91.82 18.83,92.98 18.58,94.14 17.97,95.16 17.36,96.19 16.45,96.96 15.55,97.73 14.44,98.17 13.34,98.61 12.15,98.68 10.96,98.75 9.81,98.43 8.66,98.11 7.68,97.45 6.69,96.78 5.97,95.84 5.25,94.89 4.87,93.76 4.48,92.63 4.48,91.44 4.48,90.25 4.86,89.13 5.24,88.00 5.96,87.05 6.67,86.10 7.66,85.43 8.64,84.76 9.79,84.44 10.93,84.12 12.12,84.18 13.31,84.25 14.42,84.68 15.52,85.12 16.43,85.89 17.34,86.66 17.96,87.68 18.57,88.70 18.83,89.86 19.09,91.02 18.96,92.21 18.83,93.39 18.33,94.47 17.84,95.55 17.02,96.42 16.20,97.28 15.15,97.84 14.10,98.40 12.93,98.59 11.75,98.79 10.58,98.60 9.40,98.41 8.35,97.85 7.30,97.30 6.48,96.43 5.66,95.57 5.66,95.57 5.66,95.57 4.54,90.57 3.42,85.58 3.08,82.61 2.74,79.64 2.77,76.71 2.79,73.78 2.96,71.63 3.12,69.47 3.52,67.03 3.92,64.59 4.70,62.31 5.48,60.04 6.68,57.71 7.89,55.37 9.50,53.88 11.10,52.40 13.56,51.04 16.02,49.69 18.46,48.17 20.90,46.66 23.27,45.40 25.65,44.15 27.34,41.94 29.03,39.73 30.03,37.57 31.03,35.42 31.93,33.19 32.84,30.96 33.17,28.42 33.49,25.88 33.50,23.63 33.50,21.39 33.39,18.57 33.28,15.75 32.73,12.71 32.17,9.67 31.21,7.38 30.24,5.10 28.77,3.49 27.30,1.89 24.79,0.24 22.28,-1.41 19.15,-1.52 16.02,-1.64 13.75,-1.61 11.49,-1.58 9.33,-0.93 7.17,-0.27 5.61,1.56 4.05,3.40 3.59,3.84 3.12,4.27 2.56,4.59 2.00,4.90 1.39,5.07 0.77,5.24 0.13,5.25 -0.50,5.27 -1.12,5.13 -1.74,5.00 -2.32,4.71 -2.89,4.43 -3.38,4.02 -3.87,3.61 -4.24,3.10 -4.62,2.58 -4.86,1.99 -5.10,1.40 -5.20,0.77 -5.29,0.13 -5.23,-0.49 -5.17,-1.13 -4.96,-1.73 -4.75,-2.33 -4.40,-2.87 -4.05,-3.40 -4.05,-3.40 L -4.05,-3.40 Z"></path></g><g transform="translate(81.51690903479857 171.0546875) rotate(0 0.1727292873469537 2.424483394622797)" stroke="none"><path fill="#e03131" d="M 4.83,0.37 Q 4.83,0.37 4.83,1.67 4.84,2.97 2.33,6.20 -0.17,9.43 -3.03,7.68 -5.89,5.93 -5.61,2.38 -5.32,-1.15 -5.00,-1.97 -4.67,-2.79 -4.11,-3.47 -3.54,-4.14 -2.78,-4.60 -2.03,-5.06 -1.17,-5.25 -0.30,-5.44 0.56,-5.35 1.44,-5.25 2.24,-4.88 3.04,-4.52 3.69,-3.91 4.33,-3.31 4.74,-2.53 5.16,-1.75 5.30,-0.88 5.45,-0.01 5.31,0.85 5.17,1.72 4.76,2.50 4.34,3.28 3.71,3.89 3.07,4.50 2.27,4.87 1.47,5.25 0.59,5.34 -0.28,5.44 -1.14,5.25 -2.00,5.07 -2.76,4.61 -3.51,4.16 -4.09,3.49 -4.66,2.82 -4.99,2.00 -5.32,1.18 -5.37,0.30 -5.42,-0.57 -5.18,-1.42 -4.95,-2.27 -4.46,-3.00 -3.96,-3.74 -3.26,-4.27 -2.56,-4.81 -1.73,-5.09 -0.89,-5.37 -0.01,-5.38 0.86,-5.38 1.70,-5.10 2.54,-4.82 3.24,-4.29 3.94,-3.75 4.44,-3.03 4.94,-2.30 5.18,-1.45 5.41,-0.60 5.37,0.27 5.32,1.15 5.32,1.15 5.32,1.15 4.66,1.96 4.00,2.76 1.55,1.42 -0.89,0.08 -3.06,1.14 -5.24,2.20 -5.03,0.91 -4.83,-0.37 -4.71,-0.94 -4.60,-1.51 -4.35,-2.04 -4.10,-2.57 -3.74,-3.02 -3.37,-3.48 -2.90,-3.83 -2.44,-4.18 -1.90,-4.42 -1.36,-4.65 -0.79,-4.74 -0.21,-4.84 0.36,-4.79 0.95,-4.75 1.50,-4.57 2.06,-4.38 2.55,-4.07 3.05,-3.76 3.45,-3.34 3.86,-2.92 4.15,-2.42 4.45,-1.91 4.61,-1.35 4.78,-0.79 4.80,-0.21 4.83,0.37 4.83,0.37 L 4.83,0.37 Z"></path></g></svg>